<svg width="352" height="583" viewBox="0 0 352 583" fill="none" xmlns="http://www.w3.org/2000/svg">
<g style="mix-blend-mode:color-dodge" filter="url(#filter0_bd_2_189)">
<path d="M145.692 422V308.213L4.83304 117.44H77.166L176.148 241.802L274.707 117.44H347.886L207.027 308.636V422H145.692Z" fill="#4D52B2"/>
<path d="M145.692 422H142.692V425H145.692V422ZM145.692 308.213H148.692V307.225L148.105 306.431L145.692 308.213ZM4.83304 117.44V114.44H-1.11119L2.41962 119.222L4.83304 117.44ZM77.166 117.44L79.5133 115.572L78.6125 114.44H77.166V117.44ZM176.148 241.802L173.801 243.67L176.153 246.626L178.499 243.665L176.148 241.802ZM274.707 117.44V114.44H273.257L272.356 115.577L274.707 117.44ZM347.886 117.44L350.301 119.219L353.822 114.44H347.886V117.44ZM207.027 308.636L204.612 306.857L204.027 307.65V308.636H207.027ZM207.027 422V425H210.027V422H207.027ZM148.692 422V308.213H142.692V422H148.692ZM148.105 306.431L7.24645 115.658L2.41962 119.222L143.279 309.995L148.105 306.431ZM4.83304 120.44H77.166V114.44H4.83304V120.44ZM74.8188 119.308L173.801 243.67L178.495 239.934L79.5133 115.572L74.8188 119.308ZM178.499 243.665L277.058 119.303L272.356 115.577L173.797 239.939L178.499 243.665ZM274.707 120.44H347.886V114.44H274.707V120.44ZM345.471 115.661L204.612 306.857L209.442 310.415L350.301 119.219L345.471 115.661ZM204.027 308.636V422H210.027V308.636H204.027ZM207.027 419H145.692V425H207.027V419Z" fill="#9CC38E"/>
</g>
<path d="M36.1122 583V359.92C36.1122 349.26 38.7122 339.64 43.9122 331.06C49.1122 322.22 56.1322 315.2 64.9722 310C73.8122 304.8 83.4322 302.2 93.8322 302.2H258.802C269.462 302.2 279.082 304.8 287.662 310C296.502 315.2 303.522 322.22 308.722 331.06C314.182 339.64 316.912 349.26 316.912 359.92V583H255.682V492.52H96.5622V583H36.1122ZM96.5622 431.68H255.682V363.04H96.5622V431.68Z" fill="#9CC38E"/>
<path d="M36.1122 583H33.1122V586H36.1122V583ZM43.9122 331.06L46.4778 332.615L46.488 332.598L46.498 332.581L43.9122 331.06ZM64.9722 310L63.4511 307.414L63.4511 307.414L64.9722 310ZM287.662 310L286.107 312.566L286.124 312.576L286.141 312.586L287.662 310ZM308.722 331.06L306.136 332.581L306.163 332.626L306.191 332.671L308.722 331.06ZM316.912 583V586H319.912V583H316.912ZM255.682 583H252.682V586H255.682V583ZM255.682 492.52H258.682V489.52H255.682V492.52ZM96.5622 492.52V489.52H93.5622V492.52H96.5622ZM96.5622 583V586H99.5622V583H96.5622ZM96.5622 431.68H93.5622V434.68H96.5622V431.68ZM255.682 431.68V434.68H258.682V431.68H255.682ZM255.682 363.04H258.682V360.04H255.682V363.04ZM96.5622 363.04V360.04H93.5622V363.04H96.5622ZM39.1122 583V359.92H33.1122V583H39.1122ZM39.1122 359.92C39.1122 349.773 41.5799 340.696 46.4778 332.615L41.3466 329.505C35.8445 338.584 33.1122 348.747 33.1122 359.92H39.1122ZM46.498 332.581C51.4394 324.181 58.0929 317.527 66.4932 312.586L63.4511 307.414C54.1715 312.873 46.785 320.259 41.3264 329.539L46.498 332.581ZM66.4932 312.586C74.8654 307.661 83.9592 305.2 93.8322 305.2V299.2C82.9052 299.2 72.7589 301.939 63.4511 307.414L66.4932 312.586ZM93.8322 305.2H258.802V299.2H93.8322V305.2ZM258.802 305.2C268.95 305.2 278.026 307.668 286.107 312.566L289.217 307.434C280.139 301.932 269.975 299.2 258.802 299.2V305.2ZM286.141 312.586C294.541 317.527 301.195 324.181 306.136 332.581L311.308 329.539C305.849 320.259 298.463 312.873 289.183 307.414L286.141 312.586ZM306.191 332.671C311.33 340.745 313.912 349.802 313.912 359.92H319.912C319.912 348.718 317.035 338.534 311.253 329.449L306.191 332.671ZM313.912 359.92V583H319.912V359.92H313.912ZM316.912 580H255.682V586H316.912V580ZM258.682 583V492.52H252.682V583H258.682ZM255.682 489.52H96.5622V495.52H255.682V489.52ZM93.5622 492.52V583H99.5622V492.52H93.5622ZM96.5622 580H36.1122V586H96.5622V580ZM96.5622 434.68H255.682V428.68H96.5622V434.68ZM258.682 431.68V363.04H252.682V431.68H258.682ZM255.682 360.04H96.5622V366.04H255.682V360.04ZM93.5622 363.04V431.68H99.5622V363.04H93.5622Z" fill="#4D52B2"/>
<defs>
<filter id="filter0_bd_2_189" x="0.833038" y="113.44" width="351.053" height="316.56" filterUnits="userSpaceOnUse" color-interpolation-filters="sRGB">
<feFlood flood-opacity="0" result="BackgroundImageFix"/>
<feGaussianBlur in="BackgroundImageFix" stdDeviation="2"/>
<feComposite in2="SourceAlpha" operator="in" result="effect1_backgroundBlur_2_189"/>
<feColorMatrix in="SourceAlpha" type="matrix" values="0 0 0 0 0 0 0 0 0 0 0 0 0 0 0 0 0 0 127 0" result="hardAlpha"/>
<feOffset dy="4"/>
<feGaussianBlur stdDeviation="2"/>
<feComposite in2="hardAlpha" operator="out"/>
<feColorMatrix type="matrix" values="0 0 0 0 0 0 0 0 0 0 0 0 0 0 0 0 0 0 0.25 0"/>
<feBlend mode="normal" in2="effect1_backgroundBlur_2_189" result="effect2_dropShadow_2_189"/>
<feBlend mode="normal" in="SourceGraphic" in2="effect2_dropShadow_2_189" result="shape"/>
</filter>
</defs>
</svg>
